<?xml version="1.0" encoding="UTF-8"?>
<svg width="4px" height="16px" viewBox="0 0 4 16" version="1.1" xmlns="http://www.w3.org/2000/svg" xmlns:xlink="http://www.w3.org/1999/xlink">
    <!-- Generator: Sketch 48.2 (47327) - http://www.bohemiancoding.com/sketch -->
    <title>options</title>
    <desc>Created with Sketch.</desc>
    <defs></defs>
    <g id="00_00_00_Assets" stroke="none" stroke-width="1" fill="none" fill-rule="evenodd" transform="translate(-434.000000, -29.000000)">
        <g id="options" transform="translate(418.000000, 24.000000)">
            <rect id="Rectangle-7" opacity="0" x="0" y="0" width="24" height="24"></rect>
            <g id="more" transform="translate(18.000000, 12.000000) scale(1, -1) translate(-18.000000, -12.000000) translate(12.000000, 0.000000)">
                <polygon id="bounds" points="12 0 0 0 0 24 12 24"></polygon>
                <path d="M6,15 C7.1,15 8,15.9 8,17 C8,18.1 7.1,19 6,19 C4.9,19 4,18.1 4,17 C4,15.9 4.9,15 6,15 L6,15 Z M6,13 C4.9,13 4,12.1 4,11 C4,9.9 4.9,9 6,9 C7.1,9 8,9.9 8,11 C8,12.1 7.1,13 6,13 L6,13 Z M6,7 C4.9,7 4,6.1 4,5 C4,3.9 4.9,3 6,3 C7.1,3 8,3.9 8,5 C8,6.1 7.1,7 6,7 L6,7 Z" fill="#BBC6D0"></path>
            </g>
        </g>
    </g>
</svg>