<?xml version="1.0" encoding="UTF-8"?>
<svg width="12px" height="12px" viewBox="0 0 12 12" version="1.1" xmlns="http://www.w3.org/2000/svg" xmlns:xlink="http://www.w3.org/1999/xlink">
    <!-- Generator: Sketch 48.2 (47327) - http://www.bohemiancoding.com/sketch -->
    <title>ic_margin_trade</title>
    <desc>Created with Sketch.</desc>
    <defs></defs>
    <g id="00_00_00_Assets" stroke="none" stroke-width="1" fill="none" fill-rule="evenodd" transform="translate(-26.000000, -434.000000)">
        <g id="ic_margin_trade" transform="translate(24.000000, 432.000000)">
            <polygon id="Shape" points="0 0 16 0 16 16 0 16"></polygon>
            <path d="M13.3333333,2.66666667 L2.66666667,2.66666667 L2.66666667,4 L13.3333333,4 L13.3333333,2.66666667 Z M14,9.33333333 L14,8 L13.3333333,4.66666667 L2.66666667,4.66666667 L2,8 L2,9.33333333 L2.66666667,9.33333333 L2.66666667,13.3333333 L9.33333333,13.3333333 L9.33333333,9.33333333 L12,9.33333333 L12,13.3333333 L13.3333333,13.3333333 L13.3333333,9.33333333 L14,9.33333333 Z M8,12 L4,12 L4,9.33333333 L8,9.33333333 L8,12 Z" id="Shape" fill="#56546E" fill-rule="nonzero"></path>
        </g>
    </g>
</svg>