<?xml version="1.0" encoding="UTF-8"?>
<svg width="14px" height="14px" viewBox="0 0 14 14" version="1.1" xmlns="http://www.w3.org/2000/svg" xmlns:xlink="http://www.w3.org/1999/xlink">
    <!-- Generator: Sketch 48.2 (47327) - http://www.bohemiancoding.com/sketch -->
    <title>ic_risk_management</title>
    <desc>Created with Sketch.</desc>
    <defs></defs>
    <g id="00_00_00_Assets" stroke="none" stroke-width="1" fill="none" fill-rule="evenodd" transform="translate(-25.000000, -481.000000)">
        <g id="ic_risk_management" transform="translate(24.000000, 480.000000)">
            <polygon id="Shape" points="0 0 16 0 16 16 0 16"></polygon>
            <path d="M8,1.33333333 C4.32,1.33333333 1.33333333,4.32 1.33333333,8 C1.33333333,11.68 4.32,14.6666667 8,14.6666667 C11.68,14.6666667 14.6666667,11.68 14.6666667,8 C14.6666667,4.32 11.68,1.33333333 8,1.33333333 Z M8.66666667,11.3333333 L7.33333333,11.3333333 L7.33333333,10 L8.66666667,10 L8.66666667,11.3333333 Z M8.66666667,8.66666667 L7.33333333,8.66666667 L7.33333333,4.66666667 L8.66666667,4.66666667 L8.66666667,8.66666667 Z" id="Shape" fill="#56546E" fill-rule="nonzero"></path>
        </g>
    </g>
</svg>